<?xml version="1.0" encoding="utf-8"?>
<!-- Generator: Adobe Illustrator 27.4.0, SVG Export Plug-In . SVG Version: 6.00 Build 0)  -->
<svg version="1.1" xmlns="http://www.w3.org/2000/svg" xmlns:xlink="http://www.w3.org/1999/xlink" x="0px" y="0px"
	 viewBox="0 0 14400 14400" style="enable-background:new 0 0 14400 14400;" xml:space="preserve">
<style type="text/css">
	.st0{fill:none;}
	.st1{fill:#287EB1;}
	.st2{fill:#EB5F25;}
	.st3{display:none;fill:none;}
	.st4{fill:#E6E7E8;stroke:#231F20;stroke-width:0.5;stroke-linecap:round;stroke-miterlimit:10;}
	.st5{clip-path:url(#SVGID_00000183236516434709412070000015876120599456835490_);}
	.st6{clip-path:url(#SVGID_00000070095380588885141060000005940878947164729253_);}
	.st7{fill:#E6E7E8;}
</style>
<g id="Layer_2">
	<g>
		<rect x="6459.32" y="6809.5" class="st0" width="1480" height="780"/>
		<polygon class="st1" points="6459.32,6809.5 7939.32,6809.5 7999.32,6749.5 6399.32,6749.5 6399.32,7649.5 6459.32,7589.5 		"/>
		<polygon class="st2" points="7939.32,6809.5 7939.32,7589.5 6459.32,7589.5 6399.32,7649.5 7999.32,7649.5 7999.32,6749.5 		"/>
	</g>
</g>
<g id="Layer_1">
	<g id="Circle">
		<path class="st1" d="M7845.92,7450.25c-36.26,0-65.66,29.4-65.66,65.66c0,36.26,29.4,65.66,65.66,65.66
			c36.26,0,65.66-29.4,65.66-65.66C7911.58,7479.64,7882.18,7450.25,7845.92,7450.25z M7845.92,7570.72
			c-30.27,0-54.82-24.54-54.82-54.82c0-30.28,24.54-54.82,54.82-54.82c30.27,0,54.82,24.54,54.82,54.82
			C7900.74,7546.18,7876.2,7570.72,7845.92,7570.72z"/>
		<polyline class="st3" points="7950.7,7440.85 7846.66,7440.85 7846.66,7519.61 		"/>
	</g>
	<g id="Hat">
		<path class="st1" d="M7845.14,7443.04l90.41,22.7l-37.89,9.33c0,0-10.04-9.95-20.97-15.18c-10.93-5.23-17.2-8.1-31.56-8.1
			c-14.36,0-19.05,2.86-29.97,8.1c-10.92,5.24-20.96,15.18-20.96,15.18l-12.5-2.16c0,0-12.9,10.81-17.94,18.97
			s-10.8,23.27-10.8,23.27l0.49,5.5h-11.8l4.52-5.62c0,0,5.66-16.83,14.68-28.88c9.02-12.05,12.73-13.19,15.11-15.39
			c2.39-2.2-19.66-5.02-19.66-5.02L7845.14,7443.04z"/>
		<path class="st4" d="M7854.64,7475.75"/>
	</g>
	<g id="BothKiwiOrange">
		<g id="_x3C_Mirror_Repeat_x3E__00000165928601543541316320000011146967958135579779_">
			<g>
				<g>
					<defs>
						<rect id="SVGID_1_" x="7758.33" y="7516.46" width="75.66" height="50.25"/>
					</defs>
					<clipPath id="SVGID_00000038404373109204077800000003878923728265522875_">
						<use xlink:href="#SVGID_1_"  style="overflow:visible;"/>
					</clipPath>
					
						<g id="_x3C_Mirror_Repeat_x3E__00000001638221155790920630000012501516241095523731_" style="clip-path:url(#SVGID_00000038404373109204077800000003878923728265522875_);">
						<g>
							<path class="st2" d="M7820.98,7566.71c0,0-19.36-14.46-19.8-15.88c-0.44-1.42,4.61-11.32,4.61-11.32s-6.9-3.94-9.07-5.12
								c-2.17-1.18-4.6-4.94-4.6-4.94s0.94-2.27-11.63-2.04c-12.57,0.23-22.16,4.59-22.16,4.59s13.74-7.43,23.37-7.04
								c2.87,0.12,9.3,0.32,11.92-1.6c5.54-4.05,11.49-6.9,15.75-6.9c6.07,0,9.84,6.47,9.84,6.47l14.78,17.23
								c0,0-3.76,2.56-6.75,8.42C7824.26,7554.43,7820.98,7566.71,7820.98,7566.71z"/>
						</g>
					</g>
				</g>
			</g>
		</g>
		<g id="_x3C_Mirror_Repeat_x3E__00000165947179608952619550000016763585039234230668_">
			<g>
				<g>
					<defs>
						
							<rect id="SVGID_00000108274445448183224160000002919646462906066822_" x="7859.31" y="7516.46" width="75.66" height="50.25"/>
					</defs>
					<clipPath id="SVGID_00000173857985874027477540000015452646083864956340_">
						<use xlink:href="#SVGID_00000108274445448183224160000002919646462906066822_"  style="overflow:visible;"/>
					</clipPath>
					
						<g id="_x3C_Mirror_Repeat_x3E__00000182502374586252356470000005471355620932504750_" style="clip-path:url(#SVGID_00000173857985874027477540000015452646083864956340_);">
						<g>
							<path class="st2" d="M7872.32,7566.71c0,0,19.36-14.46,19.8-15.88c0.44-1.42-4.61-11.32-4.61-11.32s6.9-3.94,9.07-5.12
								c2.17-1.18,4.6-4.94,4.6-4.94s-0.94-2.27,11.63-2.04c12.57,0.23,22.16,4.59,22.16,4.59s-13.74-7.43-23.37-7.04
								c-2.87,0.12-9.3,0.32-11.92-1.6c-5.54-4.05-11.49-6.9-15.75-6.9c-6.07,0-9.84,6.47-9.84,6.47l-14.78,17.23
								c0,0,3.76,2.56,6.75,8.42C7869.04,7554.43,7872.32,7566.71,7872.32,7566.71z"/>
						</g>
					</g>
				</g>
			</g>
		</g>
	</g>
	<g id="KiwiBlueMid">
		<g>
			<path class="st7" d="M7854.62,7490.47"/>
			<path class="st7" d="M7854.15,7566.88"/>
			<path class="st7" d="M7847.94,7571.6"/>
			<path class="st1" d="M7845.67,7571.6c6.83-0.32,19.94-0.37,25.7-4.89c0.5-10.49-6.87-24.66-14.55-31.74
				c3.4-6,2.62-14.91-5.85-16.87l-4.8-28.38l-4.8,28.38c-8.47,1.96-9.25,10.87-5.85,16.87c-7.68,7.08-15.05,21.25-14.55,31.74
				C7826.75,7571.23,7839.27,7571.6,7845.67,7571.6z"/>
		</g>
	</g>
</g>
</svg>
